<svg xmlns="http://www.w3.org/2000/svg" viewBox="0 0 64 64">
  <defs>
    <linearGradient id="bg" x1="0" y1="0" x2="1" y2="1">
      <stop offset="0%" stop-color="#4f46e5"/>
      <stop offset="100%" stop-color="#7c3aed"/>
    </linearGradient>
  </defs>
  <!-- Background with gradient instead of flat dark -->
  <rect width="64" height="64" rx="14" fill="url(#bg)"/>
  <!-- "n" using paths so it renders identically everywhere -->
  <!-- n: left stem -->
  <rect x="9" y="18" width="5" height="26" rx="2" fill="white"/>
  <!-- n: arch top -->
  <rect x="9" y="18" width="20" height="5" rx="2" fill="white"/>
  <!-- n: right stem -->
  <rect x="24" y="18" width="5" height="26" rx="2" fill="white"/>
  <!-- 0: outer ring -->
  <path d="M35 31 C35 23 38 18 45 18 C52 18 55 23 55 31 C55 39 52 44 45 44 C38 44 35 39 35 31Z" fill="white"/>
  <!-- 0: inner cutout (donut hole) -->
  <path d="M39 31 C39 25 41 22 45 22 C49 22 51 25 51 31 C51 37 49 40 45 40 C41 40 39 37 39 31Z" fill="url(#bg)"/>
  <!-- coral cursor -->
  <rect x="57" y="38" width="4" height="6" rx="1" fill="#E8523A"/>
</svg>
